<svg xmlns="http://www.w3.org/2000/svg" viewBox="0 0 600 500" width="600" height="500">
  <defs>
    <linearGradient id="bg" x1="0%" y1="0%" x2="100%" y2="100%">
      <stop offset="0%" style="stop-color:#F4EFF8"/>
      <stop offset="100%" style="stop-color:#DFF8F5"/>
    </linearGradient>
    <linearGradient id="circle" x1="0%" y1="0%" x2="100%" y2="100%">
      <stop offset="0%" style="stop-color:#4B0B6B"/>
      <stop offset="100%" style="stop-color:#7C3DA3"/>
    </linearGradient>
  </defs>
  <rect width="600" height="500" fill="url(#bg)"/>
  <!-- subtle pattern dots -->
  <circle cx="50" cy="50" r="3" fill="#4B0B6B" opacity="0.08"/>
  <circle cx="150" cy="80" r="2" fill="#23B7AE" opacity="0.12"/>
  <circle cx="500" cy="60" r="4" fill="#4B0B6B" opacity="0.06"/>
  <circle cx="560" cy="140" r="2.5" fill="#23B7AE" opacity="0.10"/>
  <circle cx="80" cy="400" r="3" fill="#23B7AE" opacity="0.10"/>
  <circle cx="520" cy="420" r="2" fill="#4B0B6B" opacity="0.08"/>
  <circle cx="300" cy="30" r="2" fill="#4B0B6B" opacity="0.07"/>
  <!-- person silhouette circle -->
  <circle cx="300" cy="190" r="70" fill="url(#circle)" opacity="0.15"/>
  <circle cx="300" cy="175" r="52" fill="url(#circle)" opacity="0.90"/>
  <!-- head -->
  <circle cx="300" cy="155" r="26" fill="#FFFFFF" opacity="0.95"/>
  <!-- body arc -->
  <path d="M248 220 Q248 195 300 195 Q352 195 352 220" fill="#FFFFFF" opacity="0.90"/>
  <!-- bottom label -->
  <rect x="0" y="420" width="600" height="80" fill="#4B0B6B" opacity="0.90"/>
  <text x="300" y="452" font-family="Georgia, serif" font-size="13" font-weight="700" fill="#DFF8F5" text-anchor="middle" letter-spacing="3" opacity="0.80">ESPAÇO VIDA REABILITAÇÃO</text>
  <text x="300" y="482" font-family="Georgia, serif" font-size="22" font-weight="bold" fill="#FFFFFF" text-anchor="middle">Fonoaudiologia</text>
  <!-- TODO label -->
  <rect x="20" y="20" width="230" height="32" rx="8" fill="#23B7AE" opacity="0.18"/>
  <text x="135" y="41" font-family="sans-serif" font-size="11" font-weight="700" fill="#1A9E96" text-anchor="middle" letter-spacing="1">TODO: substituir por foto real</text>
</svg>
